<?xml version="1.0" standalone="no"?><!DOCTYPE svg PUBLIC "-//W3C//DTD SVG 1.1//EN" "http://www.w3.org/Graphics/SVG/1.1/DTD/svg11.dtd"><svg t="1586361227067" class="icon" viewBox="0 0 1024 1024" version="1.1" xmlns="http://www.w3.org/2000/svg" p-id="947" xmlns:xlink="http://www.w3.org/1999/xlink" width="200" height="200"><defs><style type="text/css"></style></defs><path d="M834.1 469.2c-19.5-43.8-47.4-82.6-82.9-115.2l-29.1-26.7c-4.3-3.8-11.1-2.1-13 3.3l-13 37.3c-8.1 23.4-23 47.3-44.1 70.8-1.4 1.5-3 1.9-4.1 2-1.1 0.1-2.8-0.1-4.3-1.5-1.4-1.2-2.1-3-2-4.8 3.7-60.2-14.3-128.1-53.7-202C555.3 171 510 123.1 453.4 89.7l-41.3-24.3c-5.4-3.2-12.3 1-12 7.3l2.2 48c1.5 32.8-2.3 61.8-11.3 85.9-11 29.5-26.8 56.9-47 81.5-14.2 17.2-30.1 32.7-47.5 46.1-42.1 32.3-76.8 74.4-100.3 121.5C172.5 503.3 160 556.6 160 610c0 47.2 9.3 92.9 27.7 136 17.8 41.5 43.2 78.9 75.5 110.9 32.4 32 70 57.2 111.9 74.7C418.5 949.8 464.5 959 512 959s93.5-9.2 136.9-27.3c41.9-17.5 79.6-42.6 111.9-74.7 32.4-32 57.8-69.4 75.5-110.9 18.4-43.1 27.7-88.8 27.7-136 0-48.8-10-96.2-29.9-140.9zM713 808.5c-53.7 53.2-125 82.4-201 82.4s-147.3-29.2-201-82.4c-53.5-53.1-83-123.5-83-198.4 0-43.5 9.8-85.2 29.1-124 18.8-37.9 46.8-71.8 80.8-97.9 21.5-16.4 41.2-35.5 58.6-56.8 25-30.5 44.6-64.5 58.2-101 5.4-14.5 9.5-30 12.1-46.5 24.1 22.2 44.3 49 61.2 80.4 33.4 62.6 48.8 118.3 45.8 165.7-1.4 22.8 7.5 44.5 24.4 59.8 14.7 13.2 33.7 19.9 53.4 18.8 19.7-1 37.8-9.7 51-24.4 13.3-14.9 24.8-30.1 34.4-45.6 14 17.9 25.7 37.4 35 58.4 15.9 35.8 24 73.9 24 113.1 0 74.9-29.5 145.4-83 198.4z" fill="#000000" p-id="948"></path><path d="M576.054 734.52a69.102 69.102 0 0 0-16.486-22.91l-5.787-5.31c-0.855-0.755-2.207-0.417-2.585 0.657l-2.585 7.418c-1.611 4.653-4.574 9.406-8.77 14.08a1.242 1.242 0 0 1-0.815 0.397c-0.22 0.02-0.557-0.02-0.856-0.298a1.17 1.17 0 0 1-0.397-0.955c0.736-11.971-2.844-25.474-10.68-40.17-6.482-12.21-15.49-21.736-26.746-28.378l-8.213-4.832c-1.074-0.637-2.447 0.198-2.387 1.451l0.438 9.546c0.298 6.522-0.458 12.29-2.248 17.082a56.709 56.709 0 0 1-9.346 16.207 58.793 58.793 0 0 1-9.446 9.168c-8.372 6.423-15.273 14.796-19.946 24.162C444.486 741.301 442 751.9 442 762.52c0 9.386 1.85 18.474 5.509 27.045a69.484 69.484 0 0 0 15.014 22.054c6.443 6.364 13.92 11.375 22.253 14.855 8.63 3.62 17.778 5.45 27.224 5.45 9.446 0 18.594-1.83 27.224-5.43a69.325 69.325 0 0 0 22.253-14.855 68.84 68.84 0 0 0 15.014-22.054c3.66-8.571 5.509-17.66 5.509-27.045 0-9.705-1.989-19.131-5.946-28.02z" fill="#FF4D4F" p-id="949"></path></svg>